<svg width="16" height="14" viewBox="0 0 16 14" fill="none" xmlns="http://www.w3.org/2000/svg">
<path d="M10.2447 13.0362C10.2447 13.0362 14.246 9.03134 15.8053 7.47117C15.9351 7.34138 16 7.17069 16 7C16 6.82932 15.9351 6.65952 15.8053 6.52884C14.2469 4.96956 10.2447 0.965554 10.2447 0.965554C10.1167 0.836651 9.94777 0.772644 9.77886 0.772644C9.60729 0.772644 9.43661 0.838429 9.30592 0.96911C9.04545 1.22869 9.04367 1.65008 9.30237 1.90788L13.7277 6.33326H0.666741C0.2987 6.33326 0 6.63196 0 7C0 7.36804 0.2987 7.66674 0.666741 7.66674H13.7277L9.30148 12.093C9.04456 12.3499 9.04723 12.7704 9.30681 13.03C9.43838 13.1616 9.60996 13.2274 9.78064 13.2274C9.94955 13.2274 10.1167 13.1634 10.2447 13.0362Z" fill="#2D2828"/>
</svg>
